<?xml version="1.0" encoding="utf-8"?>
<!-- Generator: Adobe Illustrator 27.0.0, SVG Export Plug-In . SVG Version: 6.00 Build 0)  -->
<svg version="1.1" id="Layer_2_00000081608462996486443580000001145475046342561165_"
	 xmlns="http://www.w3.org/2000/svg" xmlns:xlink="http://www.w3.org/1999/xlink" x="0px" y="0px" viewBox="0 0 298.7 308.2"
	 style="enable-background:new 0 0 298.7 308.2;" xml:space="preserve">
<style type="text/css">
	.st0{fill:#FFFFFF;}
	.st1{fill:url(#SVGID_1_);}
</style>
<g id="OBJECTS">
	<g>
		<g>
			<path d="M183.8,146.6c0,14.2,11.5,25.7,25.7,25.7c3,0,5.9-0.6,8.6-1.5v-48.3c-2.7-1-5.6-1.5-8.6-1.5
				C195.4,120.9,183.8,132.5,183.8,146.6L183.8,146.6z"/>
			<path d="M228.9,111.2c-4.8-2.7-10.8,1-10.8,6.5c0,2.7,1.5,5.1,3.9,6.4c0.4,0.2,0.8,0.5,1.2,0.8c0.1,0,0.1,0.1,0.2,0.1
				c0.5,0.3,1,0.7,1.5,1c0.1,0.1,0.3,0.2,0.4,0.3c0.3,0.3,0.7,0.5,1,0.8c0.2,0.2,0.3,0.3,0.5,0.5c0.3,0.3,0.6,0.5,0.8,0.8
				c0.2,0.2,0.3,0.3,0.5,0.5c0.3,0.3,0.5,0.6,0.8,0.8c0.2,0.2,0.3,0.4,0.5,0.6c0.2,0.3,0.5,0.6,0.7,0.9c0.1,0.2,0.3,0.4,0.4,0.5
				c0.3,0.4,0.5,0.7,0.8,1.1c0.1,0.1,0.2,0.3,0.3,0.4c0.3,0.5,0.6,1.1,0.9,1.6c0.1,0.1,0.1,0.2,0.2,0.4c0.2,0.4,0.4,0.9,0.6,1.3
				c0.1,0.2,0.2,0.4,0.2,0.6c0.1,0.4,0.3,0.7,0.4,1.1c0.1,0.2,0.1,0.5,0.2,0.7c0.1,0.4,0.2,0.7,0.3,1.1c0.1,0.2,0.1,0.5,0.2,0.7
				c0.1,0.4,0.2,0.8,0.2,1.2c0,0.2,0.1,0.5,0.1,0.7c0.1,0.4,0.1,0.9,0.2,1.3c0,0.2,0.1,0.4,0.1,0.6c0.1,0.6,0.1,1.3,0.1,1.9
				s0,1.3-0.1,1.9c0,0.2,0,0.4-0.1,0.6c0,0.4-0.1,0.9-0.2,1.3c0,0.2-0.1,0.5-0.1,0.7c-0.1,0.4-0.1,0.8-0.2,1.2
				c-0.1,0.2-0.1,0.5-0.2,0.7c-0.1,0.4-0.2,0.7-0.3,1.1c-0.1,0.2-0.1,0.5-0.2,0.7c-0.1,0.4-0.3,0.8-0.4,1.1
				c-0.1,0.2-0.2,0.4-0.2,0.6c-0.2,0.4-0.4,0.9-0.6,1.3c-0.1,0.1-0.1,0.3-0.2,0.4c-0.3,0.5-0.6,1.1-0.9,1.6
				c-0.1,0.1-0.2,0.3-0.3,0.4c-0.2,0.4-0.5,0.8-0.8,1.1c-0.1,0.2-0.3,0.4-0.4,0.5c-0.2,0.3-0.5,0.6-0.7,0.9
				c-0.1,0.2-0.3,0.4-0.5,0.6c-0.2,0.3-0.5,0.6-0.8,0.8c-0.2,0.2-0.3,0.4-0.5,0.5c-0.3,0.3-0.6,0.5-0.8,0.8
				c-0.2,0.2-0.3,0.3-0.5,0.5c-0.3,0.3-0.6,0.5-1,0.8c-0.1,0.1-0.3,0.2-0.4,0.4c-0.5,0.4-1,0.7-1.5,1c-0.1,0-0.1,0.1-0.2,0.1
				c-0.4,0.3-0.8,0.5-1.2,0.8c-2.4,1.3-3.9,3.8-3.9,6.4l0,0c0,5.5,5.9,9.2,10.8,6.5c12.5-6.9,21-20.1,21-35.4
				S241.4,118.1,228.9,111.2L228.9,111.2z"/>
			<path class="st0" d="M169.4,143.1c1.5-17.5,14.5-32.3,31.8-35.9c5.9-1.3,11.7-1.1,17,0V78.8l0,0c0,0,22.2-12.8,25.8-40.6H76.5
				c-20.1,0-36.8,14.7-40,33.9l-0.5,6.7h124.8v60.2H142c-3.6-18.6-19.9-32.6-39.6-32.6s-36,14-39.6,32.6h-27V78.8h-10
				C11.6,78.8,0,90.3,0,104.7V217c0,32.6,26.4,58.9,58.9,58.9l0,0v-23.5h0c-11.3-7.5-19.5-19.4-22.1-33.3
				C20.9,217,8.7,203.4,8.7,186.9s11.8-29.6,27.2-32.1v0H63c3.8,18.3,20,32.1,39.5,32.1s35.7-13.8,39.5-32.1h22.6l12.3,35
				c1.5,4.3-1.6,8.9-6.1,9l-9.9,0.4V261H188c16.7,0,30.2-13.5,30.2-30.2V186c-2.8,0.6-5.6,0.9-8.6,0.9
				C186.1,186.9,167.3,166.9,169.4,143.1L169.4,143.1z M102.4,172.3c-14.2,0-25.7-11.5-25.7-25.7s11.5-25.7,25.7-25.7
				s25.7,11.5,25.7,25.7S116.6,172.3,102.4,172.3z"/>
			<path class="st0" d="M36.6,30.6c0,0-32.7,17.8-0.7,48.1c0-2.3,0.2-4.5,0.6-6.7l0.1-1.5V30.6z"/>
			<polygon class="st0" points="146.3,298.9 126.8,308.1 58.9,275.9 58.9,308.2 126.7,308.2 127,308.2 160.7,308.2 194.8,308.2 
				194.8,275.9 160.7,292 160.7,261 87.4,261 			"/>
		</g>
		
			<linearGradient id="SVGID_1_" gradientUnits="userSpaceOnUse" x1="160.56" y1="179.5" x2="298.69" y2="179.5" gradientTransform="matrix(1 0 0 -1 0 310)">
			<stop  offset="0" style="stop-color:#3FBBF9"/>
			<stop  offset="0.8" style="stop-color:#95FFA7"/>
		</linearGradient>
		<path class="st1" d="M218.1,78.8L218.1,78.8v28.5c-5.4-1.2-11.1-1.3-17,0c-17.2,3.6-30.3,18.4-31.8,35.9
			c-2,23.9,16.8,43.8,40.2,43.8c2.9,0,5.8-0.3,8.6-0.9v44.8c0,16.7-13.5,30.2-30.2,30.2h110.7V0H160.6v38.2H244
			C240.4,66,218.1,78.8,218.1,78.8L218.1,78.8z M209.5,172.3c-14.2,0-25.7-11.5-25.7-25.7s11.5-25.7,25.7-25.7c3,0,5.9,0.6,8.6,1.5
			v48.3C215.4,171.7,212.6,172.3,209.5,172.3L209.5,172.3z M228.9,182c-4.8,2.6-10.8-1-10.8-6.5l0,0c0-2.7,1.5-5.1,3.9-6.4
			c0.4-0.2,0.8-0.5,1.2-0.8c0.1,0,0.1-0.1,0.2-0.1c0.5-0.3,1-0.7,1.5-1c0.1-0.1,0.3-0.2,0.4-0.4c0.3-0.3,0.7-0.5,1-0.8
			c0.2-0.1,0.3-0.3,0.5-0.5c0.3-0.3,0.6-0.5,0.8-0.8c0.2-0.2,0.3-0.3,0.5-0.5c0.3-0.3,0.5-0.6,0.8-0.8c0.2-0.2,0.3-0.4,0.5-0.6
			c0.2-0.3,0.5-0.6,0.7-0.9c0.1-0.2,0.3-0.4,0.4-0.5c0.3-0.4,0.5-0.7,0.8-1.1c0.1-0.1,0.2-0.3,0.3-0.4c0.3-0.5,0.6-1.1,0.9-1.6
			c0.1-0.1,0.1-0.2,0.2-0.4c0.2-0.4,0.4-0.9,0.6-1.3c0.1-0.2,0.2-0.4,0.2-0.6c0.1-0.4,0.3-0.7,0.4-1.1c0.1-0.2,0.1-0.5,0.2-0.7
			c0.1-0.4,0.2-0.7,0.3-1.1c0.1-0.2,0.1-0.5,0.2-0.7c0.1-0.4,0.2-0.8,0.2-1.2c0-0.2,0.1-0.5,0.1-0.7c0.1-0.4,0.1-0.9,0.2-1.3
			c0-0.2,0.1-0.4,0.1-0.6c0.1-0.6,0.1-1.3,0.1-1.9s0-1.3-0.1-1.9c0-0.2,0-0.4-0.1-0.6c0-0.4-0.1-0.9-0.2-1.3c0-0.2-0.1-0.5-0.1-0.7
			c-0.1-0.4-0.1-0.8-0.2-1.2c-0.1-0.2-0.1-0.5-0.2-0.7c-0.1-0.4-0.2-0.7-0.3-1.1c-0.1-0.2-0.1-0.5-0.2-0.7c-0.1-0.4-0.3-0.8-0.4-1.1
			c-0.1-0.2-0.2-0.4-0.2-0.6c-0.2-0.4-0.4-0.9-0.6-1.3c-0.1-0.1-0.1-0.2-0.2-0.4c-0.3-0.5-0.6-1.1-0.9-1.6c-0.1-0.1-0.2-0.3-0.3-0.4
			c-0.2-0.4-0.5-0.8-0.8-1.1c-0.1-0.2-0.3-0.4-0.4-0.5c-0.2-0.3-0.5-0.6-0.7-0.9c-0.1-0.2-0.3-0.4-0.5-0.6c-0.2-0.3-0.5-0.6-0.8-0.8
			c-0.2-0.2-0.3-0.4-0.5-0.5c-0.3-0.3-0.6-0.5-0.8-0.8c-0.2-0.2-0.3-0.3-0.5-0.5c-0.3-0.3-0.6-0.5-1-0.8c-0.1-0.1-0.3-0.2-0.4-0.3
			c-0.5-0.4-1-0.7-1.5-1c-0.1,0-0.1-0.1-0.2-0.1c-0.4-0.3-0.8-0.5-1.2-0.8c-2.4-1.3-3.9-3.8-3.9-6.4c0-5.5,5.9-9.2,10.8-6.5
			c12.5,6.8,21,20.1,21,35.4S241.4,175.1,228.9,182L228.9,182z"/>
	</g>
</g>
</svg>
